<svg xmlns="http://www.w3.org/2000/svg" viewBox="255 300 785 205" role="img" aria-label="Qlarify Health logo">
  <title>Qlarify Health</title>
  <defs>
    <!-- Mask that punches the inner hole out of the Q so the background shows through -->
    <mask id="q-cutout">
      <rect x="255" y="300" width="785" height="205" fill="white"/>
      <path d="M280 330C280 326.134 283.134 323 287 323H333C336.866 323 340 326.134 340 330V378C340 381.866 336.866 385 333 385H287C283.134 385 280 381.866 280 378V330Z" fill="black"/>
    </mask>
  </defs>

  <!-- Q outer block (navy, with mask cutout) -->
  <rect x="260.5" y="305.5" width="99" height="97" rx="6.5" fill="#163460" mask="url(#q-cutout)"/>

  <!-- Q diagonal tail (navy) -->
  <path d="M351.688 398.04L382.585 437.604" stroke="#163460" stroke-width="15" stroke-linecap="round"/>

  <!-- "LARIFY" — navy -->
  <path fill="#163460" d="M415.469 403V307H432.859V388.422H475.141V403H415.469ZM535.305 403H516.742L550.539 307H572.008L605.852 403H587.289L561.648 326.688H560.898L535.305 403ZM535.914 365.359H586.539V379.328H535.914V365.359ZM651.238 403V307H687.238C694.613 307 700.801 308.281 705.801 310.844C710.832 313.406 714.629 317 717.191 321.625C719.785 326.219 721.082 331.578 721.082 337.703C721.082 343.859 719.77 349.203 717.145 353.734C714.551 358.234 710.723 361.719 705.66 364.187C700.598 366.625 694.379 367.844 687.004 367.844H661.363V353.406H684.66C688.973 353.406 692.504 352.812 695.254 351.625C698.004 350.406 700.035 348.641 701.348 346.328C702.691 343.984 703.363 341.109 703.363 337.703C703.363 334.297 702.691 331.391 701.348 328.984C700.004 326.547 697.957 324.703 695.207 323.453C692.457 322.172 688.91 321.531 684.566 321.531H668.629V403H651.238ZM700.832 359.5L724.598 403H705.191L681.848 359.5H700.832ZM787.223 307V403H769.832V307H787.223ZM838.797 403V307H900.297V321.578H856.188V347.641H896.078V362.219H856.188V403H838.797ZM942.32 307H961.961L985.445 349.469H986.383L1009.87 307H1029.51L994.586 367.188V403H977.242V367.188L942.32 307Z"/>

  <!-- "HEALTH" — rust (replaced from tan #C9A96E in source file) -->
  <path fill="#e8835f" d="M455.739 495V436.818H466.278V461.449H493.239V436.818H503.807V495H493.239V470.284H466.278V495H455.739ZM535.114 495V436.818H572.955V445.653H545.653V461.449H570.994V470.284H545.653V486.165H573.182V495H535.114ZM611.023 495H599.773L620.256 436.818H633.267L653.778 495H642.528L626.989 448.75H626.534L611.023 495ZM611.392 472.188H642.074V480.653H611.392V472.188ZM681.286 495V436.818H691.825V486.165H717.45V495H681.286ZM743.885 445.653V436.818H790.305V445.653H772.322V495H761.868V445.653H743.885ZM819.098 495V436.818H829.638V461.449H856.598V436.818H867.166V495H856.598V470.284H829.638V495H819.098Z"/>
</svg>
